<svg id="visual" viewBox="0 0 960 150" width="960" height="150" xmlns="http://www.w3.org/2000/svg" xmlns:xlink="http://www.w3.org/1999/xlink" version="1.1"><rect x="0" y="0" width="960" height="150" fill="#FFFFFF"></rect><path d="M0 109L32 109.3C64 109.7 128 110.3 192 111.2C256 112 320 113 384 114.2C448 115.3 512 116.7 576 116.8C640 117 704 116 768 114.3C832 112.7 896 110.3 928 109.2L960 108L960 0L928 0C896 0 832 0 768 0C704 0 640 0 576 0C512 0 448 0 384 0C320 0 256 0 192 0C128 0 64 0 32 0L0 0Z" fill="#b9b9b9"></path><path d="M0 82L32 84C64 86 128 90 192 91.7C256 93.3 320 92.7 384 92.7C448 92.7 512 93.3 576 93.2C640 93 704 92 768 92C832 92 896 93 928 93.5L960 94L960 0L928 0C896 0 832 0 768 0C704 0 640 0 576 0C512 0 448 0 384 0C320 0 256 0 192 0C128 0 64 0 32 0L0 0Z" fill="#87898c"></path><path d="M0 65L32 63.7C64 62.3 128 59.7 192 59.7C256 59.7 320 62.3 384 62.8C448 63.3 512 61.7 576 62.8C640 64 704 68 768 67.8C832 67.7 896 63.3 928 61.2L960 59L960 0L928 0C896 0 832 0 768 0C704 0 640 0 576 0C512 0 448 0 384 0C320 0 256 0 192 0C128 0 64 0 32 0L0 0Z" fill="#585c62"></path><path d="M0 48L32 47C64 46 128 44 192 43.8C256 43.7 320 45.3 384 45C448 44.7 512 42.3 576 42.5C640 42.7 704 45.3 768 46.8C832 48.3 896 48.7 928 48.8L960 49L960 0L928 0C896 0 832 0 768 0C704 0 640 0 576 0C512 0 448 0 384 0C320 0 256 0 192 0C128 0 64 0 32 0L0 0Z" fill="#2d333b"></path><path d="M0 19L32 20.8C64 22.7 128 26.3 192 28C256 29.7 320 29.3 384 28C448 26.7 512 24.3 576 23.3C640 22.3 704 22.7 768 23.7C832 24.7 896 26.3 928 27.2L960 28L960 0L928 0C896 0 832 0 768 0C704 0 640 0 576 0C512 0 448 0 384 0C320 0 256 0 192 0C128 0 64 0 32 0L0 0Z" fill="#000c18"></path></svg>